<svg xmlns="http://www.w3.org/2000/svg" version="1.1" xmlns:xlink="http://www.w3.org/1999/xlink" xmlns:svgjs="http://svgjs.com/svgjs" width="1440" height="560" preserveAspectRatio="none" viewBox="0 0 1440 560"><g mask="url(&quot;#SvgjsMask1006&quot;)" fill="none"><path d="M918.08 123.62a23.55 23.55 0 1 0 29.75-36.52z" fill="#e73635"></path><path d="M1307.83 439.21L1328.12 439.21L1328.12 459.5L1307.83 459.5z" stroke="#d3b714"></path><path d="M176.3 309.92a24.9 24.9 0 1 0 26.45 42.19z" stroke="#d3b714"></path><path d="M636.98 60.08a2.74 2.74 0 1 0 0.64-5.44z" stroke="#e73635"></path><path d="M395.79 368.64 a47.88 47.88 0 1 0 95.76 0 a47.88 47.88 0 1 0 -95.76 0z" stroke="#e73635"></path><path d="M475.52-13.31a44.33 44.33 0 1 0-8.97 88.21z" fill="#e73635"></path><path d="M123.97 53.86a52.24 52.24 0 1 0 38.54-97.11z" fill="#d3b714"></path><path d="M678.47 126.36L709.85 126.36L709.85 157.74L678.47 157.74z" stroke="#037b0b"></path><path d="M1061.69 285.35 a15.96 15.96 0 1 0 31.92 0 a15.96 15.96 0 1 0 -31.92 0z" fill="#037b0b"></path><path d="M1343.26 334.85 a7.45 7.45 0 1 0 14.9 0 a7.45 7.45 0 1 0 -14.9 0z" stroke="#d3b714"></path><path d="M760.87 264.64a55.8 55.8 0 1 0-45.25-102.02z" stroke="#d3b714"></path><path d="M334.43 333.97L374.58 333.97L374.58 374.12L334.43 374.12z" stroke="#037b0b"></path><path d="M122.26 198.46L137.46 198.46L137.46 199.64L122.26 199.64z" stroke="#037b0b"></path><path d="M1291.95 285.3a46.53 46.53 0 1 0 78.3 50.28z" stroke="#e73635"></path><path d="M21.52 91.24a45.68 45.68 0 1 0 21.92-88.69z" stroke="#037b0b"></path><path d="M581.64 311.3 a8.01 8.01 0 1 0 16.02 0 a8.01 8.01 0 1 0 -16.02 0z" fill="#037b0b"></path><path d="M696.67 192.14 a32.17 32.17 0 1 0 64.34 0 a32.17 32.17 0 1 0 -64.34 0z" stroke="#e73635"></path><path d="M651.11 57.9a7.42 7.42 0 1 0 14.5 3.15z" fill="#e73635"></path><path d="M923.11 191.89a37.42 37.42 0 1 0-61.77 42.25z" fill="#d3b714"></path><path d="M400.73 388.43a27.66 27.66 0 1 0-40.37 37.83z" fill="#037b0b"></path><path d="M994.47 18.58L1033.32 18.58L1033.32 61.78L994.47 61.78z" stroke="#037b0b"></path><path d="M569.17 389.24 a48.8 48.8 0 1 0 97.6 0 a48.8 48.8 0 1 0 -97.6 0z" fill="#037b0b"></path><path d="M1001.14 71.52 a16.68 16.68 0 1 0 33.36 0 a16.68 16.68 0 1 0 -33.36 0z" fill="#e73635"></path><path d="M968.95 202.79 a46.57 46.57 0 1 0 93.14 0 a46.57 46.57 0 1 0 -93.14 0z" fill="#e73635"></path><path d="M0.96 11.72L14.33 11.72L14.33 52.52L0.96 52.52z" stroke="#037b0b"></path><path d="M1235.86 493.68a10.49 10.49 0 1 0-2.01 20.89z" stroke="#d3b714"></path><path d="M697.58 182.35L741.07 182.35L741.07 225.84L697.58 225.84z" stroke="#037b0b"></path><path d="M855.92 477.37a19.75 19.75 0 1 0 39.06 5.92z" fill="#037b0b"></path><path d="M1253.21 391.7L1291.36 391.7L1291.36 439.27L1253.21 439.27z" fill="#d3b714"></path><path d="M376.48 92.12L421.4 92.12L421.4 137.04L376.48 137.04z" fill="#037b0b"></path><path d="M1160.79 464.16L1206.49 464.16L1206.49 509.86L1160.79 509.86z" stroke="#037b0b"></path><path d="M527.89 216.24a3.25 3.25 0 1 0-6.17 2.03z" stroke="#e73635"></path><path d="M1106.5 285.63L1129.25 285.63L1129.25 298.71L1106.5 298.71z" stroke="#e73635"></path></g><defs><mask id="SvgjsMask1006"><rect width="1440" height="560" fill="#ffffff"></rect></mask></defs></svg>