<!--?xml version="1.0" standalone="no"?-->
              <svg id="sw-js-blob-svg" viewBox="0 0 100 100" xmlns="http://www.w3.org/2000/svg" version="1.1">
                    <defs> 
                        <linearGradient id="sw-gradient" x1="0" x2="1" y1="1" y2="0">
                            <stop id="stop1" stop-color="rgba(248, 117, 55, 1)" offset="0%"></stop>
                            <stop id="stop2" stop-color="rgba(251, 168, 31, 1)" offset="100%"></stop>
                        </linearGradient>
                    </defs>
                <path fill="url(#sw-gradient)" d="M25.7,-32.2C32.1,-25.3,35,-16,37.2,-6.2C39.4,3.7,40.8,14,37.1,22.2C33.3,30.3,24.3,36.2,14.8,39C5.3,41.7,-4.8,41.3,-13.9,38C-22.9,34.8,-31,28.6,-35,20.7C-39,12.7,-38.9,2.9,-36.4,-5.6C-33.9,-14.2,-29.1,-21.5,-22.6,-28.4C-16.1,-35.2,-8.1,-41.7,0.8,-42.7C9.7,-43.6,19.4,-39.1,25.7,-32.2Z" width="100%" height="100%" transform="translate(50 50)" stroke-width="0" style="transition: all 0.3s ease 0s;"></path>
              </svg>