<?xml version="1.0" encoding="UTF-8"?>
<svg xmlns="http://www.w3.org/2000/svg" xmlns:xlink="http://www.w3.org/1999/xlink" viewBox="0 0 100 100" width="100px" height="100px">
<g id="surface107903794">
<path style=" stroke:none;fill-rule:nonzero;fill:rgb(100%,100%,100%);fill-opacity:1;" d="M 33.332031 12.5 C 21.847656 12.5 12.5 21.847656 12.5 33.332031 L 12.5 66.667969 C 12.5 78.152344 21.847656 87.5 33.332031 87.5 L 66.667969 87.5 C 78.152344 87.5 87.5 78.152344 87.5 66.667969 L 87.5 33.332031 C 87.5 21.847656 78.152344 12.5 66.667969 12.5 Z M 33.332031 20.832031 L 66.667969 20.832031 C 73.558594 20.832031 79.167969 26.441406 79.167969 33.332031 L 79.167969 66.667969 C 79.167969 73.558594 73.558594 79.167969 66.667969 79.167969 L 33.332031 79.167969 C 26.441406 79.167969 20.832031 73.558594 20.832031 66.667969 L 20.832031 33.332031 C 20.832031 26.441406 26.441406 20.832031 33.332031 20.832031 Z M 70.832031 25 C 68.53125 25 66.667969 26.867188 66.667969 29.167969 C 66.667969 31.46875 68.53125 33.332031 70.832031 33.332031 C 73.132812 33.332031 75 31.46875 75 29.167969 C 75 26.867188 73.132812 25 70.832031 25 Z M 50 29.167969 C 38.511719 29.167969 29.167969 38.511719 29.167969 50 C 29.167969 61.488281 38.511719 70.832031 50 70.832031 C 61.488281 70.832031 70.832031 61.488281 70.832031 50 C 70.832031 38.511719 61.488281 29.167969 50 29.167969 Z M 50 37.5 C 56.890625 37.5 62.5 43.109375 62.5 50 C 62.5 56.890625 56.890625 62.5 50 62.5 C 43.109375 62.5 37.5 56.890625 37.5 50 C 37.5 43.109375 43.109375 37.5 50 37.5 Z M 50 37.5 "/>
</g>
</svg>
