<?xml version="1.0" encoding="UTF-8"?>
<svg xmlns="http://www.w3.org/2000/svg" xmlns:xlink="http://www.w3.org/1999/xlink" viewBox="0 0 100 100" width="100px" height="100px">
<g id="surface107994083">
<path style=" stroke:none;fill-rule:nonzero;fill:rgb(100%,100%,100%);fill-opacity:1;" d="M 20.832031 12.5 C 16.230469 12.5 12.5 16.230469 12.5 20.832031 L 12.5 79.167969 C 12.5 83.769531 16.230469 87.5 20.832031 87.5 L 79.167969 87.5 C 83.769531 87.5 87.5 83.769531 87.5 79.167969 L 87.5 20.832031 C 87.5 16.230469 83.769531 12.5 79.167969 12.5 Z M 20.832031 20.832031 L 79.167969 20.832031 L 79.167969 79.167969 L 20.832031 79.167969 Z M 32.414062 26.320312 C 28.84375 26.320312 26.699219 28.464844 26.699219 31.324219 C 26.699219 34.179688 28.84375 36.320312 32.054688 36.320312 C 35.625 36.320312 37.769531 34.179688 37.769531 31.324219 C 37.769531 28.464844 35.625 26.320312 32.414062 26.320312 Z M 26.984375 41.667969 L 26.984375 70.832031 L 37.5 70.832031 L 37.5 41.667969 Z M 46.175781 41.667969 L 46.175781 70.832031 L 56.691406 70.832031 L 56.691406 54.890625 C 56.691406 50.144531 60.074219 49.464844 61.09375 49.464844 C 62.109375 49.464844 64.828125 50.484375 64.828125 54.890625 L 64.828125 70.832031 L 75 70.832031 L 75 54.890625 C 75 45.738281 70.933594 41.667969 65.84375 41.667969 C 60.757812 41.667969 58.042969 43.359375 56.691406 45.734375 L 56.691406 41.667969 Z M 46.175781 41.667969 "/>
</g>
</svg>
