<svg id="e0lAEaXVCev1" xmlns="http://www.w3.org/2000/svg" xmlns:xlink="http://www.w3.org/1999/xlink" viewBox="0 0 576 512" shape-rendering="geometricPrecision" text-rendering="geometricPrecision"><path d="M381.2,150.3l143.7,21.2c11.9,1.7,21.9,10.1,25.7,21.6c3.8,11.6.7,24.2-7.9,32.8L438.5,328.1l24.6,146.6c2,12-2.9,24.2-12.9,31.3-9.9,7.1-23,8-33.7,2.3L288.1,439.8L159.8,508.3C149,514,135.9,513.1,126,506s-14.9-19.3-12.8-31.3l24.6-146.6L33.58,225.9c-8.61-8.6-11.67-21.2-7.89-32.8c3.77-11.5,13.74-19.9,25.73-21.6L195,150.3L259.4,17.97c5.3-11.016,16.5-18.0091,28.7-18.0091c12.3,0,23.5,6.9931,28.8,18.0091L381.2,150.3Z" fill="#fb9c25"/></svg>