<?xml version="1.0"?>
<svg xmlns="http://www.w3.org/2000/svg" xmlns:xlink="http://www.w3.org/1999/xlink" xmlns:svgjs="http://svgjs.com/svgjs" version="1.1" width="512" height="512" x="0" y="0" viewBox="0 0 24 24" style="enable-background:new 0 0 512 512" xml:space="preserve"><g><path xmlns="http://www.w3.org/2000/svg" d="M1.5,6h21a1.5,1.5,0,0,0,0-3H1.5a1.5,1.5,0,0,0,0,3Z" fill="#ffffff" data-original="#000000"/><path xmlns="http://www.w3.org/2000/svg" d="M1.5,11h13a1.5,1.5,0,0,0,0-3H1.5a1.5,1.5,0,0,0,0,3Z" fill="#ffffff" data-original="#000000"/><path xmlns="http://www.w3.org/2000/svg" d="M14.5,18H1.5a1.5,1.5,0,0,0,0,3h13a1.5,1.5,0,0,0,0-3Z" fill="#ffffff" data-original="#000000"/><path xmlns="http://www.w3.org/2000/svg" d="M22.5,13H1.5a1.5,1.5,0,0,0,0,3h21a1.5,1.5,0,0,0,0-3Z" fill="#ffffff" data-original="#000000"/></g></svg>
