<?xml version="1.0" encoding="UTF-8"?>
<svg xmlns="http://www.w3.org/2000/svg" xmlns:xlink="http://www.w3.org/1999/xlink" viewBox="0 0 100 100" width="100px" height="100px">
<g id="surface107905505">
<path style=" stroke:none;fill-rule:nonzero;fill:rgb(100%,100%,100%);fill-opacity:1;" d="M 66.667969 12.5 C 55.351562 12.5 46.167969 21.644531 45.921875 32.902344 C 35.917969 31.703125 29.402344 27.960938 25.40625 24.277344 C 20.976562 20.1875 19.570312 16.558594 19.570312 16.558594 C 19.15625 15.507812 18.203125 14.761719 17.082031 14.613281 C 15.960938 14.460938 14.847656 14.929688 14.167969 15.832031 C 14.167969 15.832031 10.417969 20.832031 10.417969 28.125 C 10.417969 32.292969 11.734375 35.378906 13.300781 37.992188 C 13.242188 37.964844 12.855469 37.828125 12.855469 37.828125 C 11.839844 37.324219 10.632812 37.40625 9.695312 38.046875 C 8.757812 38.683594 8.242188 39.78125 8.34375 40.910156 C 8.34375 40.910156 9.546875 49.703125 17.8125 56.128906 L 16.953125 56.34375 C 16.003906 56.582031 15.21875 57.25 14.835938 58.148438 C 14.449219 59.046875 14.507812 60.074219 14.996094 60.925781 C 14.996094 60.925781 16.394531 63.296875 19.332031 65.792969 C 21.074219 67.269531 23.628906 68.796875 26.644531 70.210938 C 22.941406 71.5625 17.421875 72.917969 9.375 72.917969 C 8.148438 72.917969 7.035156 73.632812 6.527344 74.75 C 6.023438 75.867188 6.214844 77.179688 7.023438 78.101562 C 7.023438 78.101562 9.410156 80.730469 14.132812 83.019531 C 18.851562 85.308594 26.125 87.5 36.457031 87.5 C 54.625 87.5 67.675781 78.785156 75.820312 67.742188 C 83.96875 56.695312 87.5 43.460938 87.5 33.332031 C 87.5 32.691406 87.460938 32.058594 87.402344 31.429688 C 91.800781 27.191406 93.453125 24.003906 93.53125 23.847656 C 93.925781 23.054688 93.777344 22.101562 93.164062 21.46875 C 92.550781 20.832031 91.601562 20.652344 90.796875 21.023438 L 90.457031 21.179688 C 90.167969 21.3125 89.878906 21.445312 89.585938 21.578125 C 90.433594 20.226562 91.105469 18.78125 91.570312 17.285156 C 91.828125 16.460938 91.546875 15.554688 90.863281 15.023438 C 90.183594 14.488281 89.242188 14.433594 88.5 14.882812 C 85.953125 16.433594 83.515625 17.515625 80.972656 18.242188 C 77.234375 14.695312 72.203125 12.5 66.667969 12.5 Z M 66.667969 18.75 C 74.757812 18.75 81.25 25.242188 81.25 33.332031 C 81.25 41.957031 78.011719 54.242188 70.792969 64.03125 C 63.574219 73.820312 52.667969 81.25 36.457031 81.25 C 28.613281 81.25 23.394531 79.832031 19.488281 78.296875 C 23.582031 77.660156 27.109375 76.8125 29.644531 75.828125 C 34.039062 74.128906 36.410156 72.164062 36.410156 72.164062 C 37.296875 71.402344 37.683594 70.210938 37.414062 69.074219 C 37.148438 67.9375 36.265625 67.042969 35.132812 66.761719 C 29.460938 65.34375 25.820312 63.046875 23.539062 61.136719 L 26.796875 60.324219 C 28.121094 59.992188 29.078125 58.84375 29.160156 57.484375 C 29.246094 56.121094 28.4375 54.863281 27.164062 54.375 C 20.402344 51.773438 17.566406 48.097656 16.113281 45.015625 C 17.878906 45.382812 19.523438 45.832031 21.875 45.832031 C 23.324219 45.832031 24.582031 44.835938 24.914062 43.425781 C 25.246094 42.015625 24.566406 40.5625 23.269531 39.914062 C 23.269531 39.914062 16.667969 36.875 16.667969 28.125 C 16.667969 26.554688 17.101562 25.558594 17.417969 24.371094 C 18.507812 25.835938 19.40625 27.246094 21.167969 28.871094 C 26.53125 33.816406 35.398438 38.859375 48.792969 39.578125 C 49.648438 39.625 50.484375 39.316406 51.109375 38.726562 C 51.730469 38.136719 52.082031 37.316406 52.082031 36.457031 L 52.082031 33.332031 C 52.082031 25.242188 58.578125 18.75 66.667969 18.75 Z M 66.667969 18.75 "/>
</g>
</svg>
