<?xml version="1.0" encoding="UTF-8"?>
<svg xmlns="http://www.w3.org/2000/svg" xmlns:xlink="http://www.w3.org/1999/xlink" viewBox="0 0 100 100" width="100px" height="100px">
<g id="surface108006012">
<path style=" stroke:none;fill-rule:nonzero;fill:rgb(100%,100%,100%);fill-opacity:1;" d="M 50.050781 8.332031 C 27.105469 8.332031 8.429688 26.992188 8.421875 49.933594 C 8.417969 57.269531 10.339844 64.425781 13.980469 70.734375 L 8.332031 91.667969 L 30.136719 86.515625 C 36.214844 89.832031 43.058594 91.574219 50.023438 91.578125 L 50.039062 91.578125 C 72.976562 91.578125 91.644531 72.914062 91.660156 49.976562 C 91.667969 38.855469 87.34375 28.398438 79.484375 20.53125 C 71.625 12.667969 61.183594 8.335938 50.050781 8.332031 Z M 50.039062 16.667969 C 58.941406 16.671875 67.304688 20.140625 73.59375 26.425781 C 79.878906 32.714844 83.332031 41.074219 83.324219 49.96875 C 83.316406 68.316406 68.390625 83.242188 50.03125 83.242188 C 44.476562 83.238281 38.976562 81.84375 34.132812 79.199219 L 31.324219 77.667969 L 28.222656 78.402344 L 20.019531 80.339844 L 22.023438 72.898438 L 22.925781 69.5625 L 21.199219 66.570312 C 18.292969 61.535156 16.753906 55.78125 16.757812 49.933594 C 16.765625 31.59375 31.695312 16.667969 50.039062 16.667969 Z M 35.320312 30.730469 C 34.625 30.730469 33.5 30.988281 32.542969 32.03125 C 31.589844 33.070312 28.898438 35.582031 28.898438 40.699219 C 28.898438 45.816406 32.625 50.761719 33.144531 51.457031 C 33.664062 52.148438 40.339844 62.980469 50.910156 67.148438 C 59.695312 70.609375 61.480469 69.925781 63.386719 69.75 C 65.296875 69.582031 69.542969 67.242188 70.410156 64.8125 C 71.277344 62.382812 71.277344 60.292969 71.019531 59.863281 C 70.761719 59.429688 70.070312 59.171875 69.027344 58.652344 C 67.988281 58.128906 62.875 55.621094 61.921875 55.273438 C 60.96875 54.925781 60.269531 54.753906 59.578125 55.792969 C 58.886719 56.835938 56.898438 59.171875 56.289062 59.863281 C 55.683594 60.558594 55.078125 60.652344 54.035156 60.132812 C 52.996094 59.605469 49.644531 58.507812 45.671875 54.964844 C 42.578125 52.210938 40.492188 48.8125 39.882812 47.769531 C 39.28125 46.734375 39.828125 46.164062 40.347656 45.644531 C 40.816406 45.179688 41.382812 44.429688 41.902344 43.824219 C 42.417969 43.214844 42.597656 42.78125 42.945312 42.089844 C 43.289062 41.398438 43.113281 40.789062 42.855469 40.265625 C 42.597656 39.746094 40.574219 34.609375 39.648438 32.550781 C 38.871094 30.824219 38.046875 30.78125 37.304688 30.753906 C 36.699219 30.730469 36.011719 30.730469 35.320312 30.730469 Z M 35.320312 30.730469 "/>
</g>
</svg>
